<svg width="16" height="22" viewBox="0 0 16 22" fill="none" xmlns="http://www.w3.org/2000/svg">
<path d="M6.92512 21.5121C1.08419 12.8726 0 11.9859 0 8.81079C0 4.46153 3.45561 0.935791 7.71834 0.935791C11.9811 0.935791 15.4367 4.46153 15.4367 8.81079C15.4367 11.9859 14.3525 12.8726 8.51156 21.5121C8.12826 22.077 7.30838 22.077 6.92512 21.5121ZM7.71834 12.092C9.49448 12.092 10.9343 10.623 10.9343 8.81079C10.9343 6.9986 9.49448 5.52954 7.71834 5.52954C5.9422 5.52954 4.50236 6.9986 4.50236 8.81079C4.50236 10.623 5.9422 12.092 7.71834 12.092Z" fill="white"/>
</svg>
