<svg width="18" height="18" viewBox="0 0 18 18" fill="none" xmlns="http://www.w3.org/2000/svg">
<path d="M16.6586 2.75421L14.4003 0.503459C14.241 0.34384 14.0516 0.217194 13.8431 0.130794C13.6346 0.0443952 13.411 -5.39835e-05 13.1852 4.92025e-08C12.7251 4.92025e-08 12.2925 0.179807 11.9681 0.503459L9.53799 2.92767C9.37798 3.08659 9.25103 3.27549 9.16442 3.4835C9.07781 3.69151 9.03326 3.91454 9.03331 4.13978C9.03331 4.59882 9.21355 5.03035 9.53799 5.35401L11.315 7.12669C10.899 8.04129 10.3207 8.87332 9.60797 9.58263C8.89701 10.2954 8.06303 10.8744 7.14607 11.2919L5.3691 9.51917C5.20979 9.35956 5.02044 9.23291 4.81193 9.14651C4.60341 9.06011 4.37984 9.01566 4.15405 9.01571C3.6939 9.01571 3.26132 9.19552 2.93689 9.51917L0.504679 11.9413C0.344478 12.1005 0.217415 12.2897 0.130803 12.4981C0.0441902 12.7065 -0.00026277 12.9299 1.16847e-06 13.1555C1.16847e-06 13.6145 0.180243 14.0461 0.504679 14.3697L2.75877 16.6184C3.27617 17.1366 3.99077 17.4307 4.72446 17.4307C4.87926 17.4307 5.0277 17.418 5.17401 17.3926C8.03244 16.923 10.8675 15.4063 13.1556 13.1259C15.4414 10.8476 16.9597 8.02149 17.4368 5.16151C17.581 4.28786 17.2905 3.38883 16.6586 2.75421Z" fill="white"/>
</svg>
